HIERARCHY
ROOT joint_Root
{
	OFFSET 0.0 0.0 0.0
	CHANNELS 6 Xposition Yposition Zposition Zrotation Xrotation Yrotation 
	JOINT Hips
	{
		OFFSET 4.5925 91.4895 -427.239
		CHANNELS 6 Xposition Yposition Zposition Zrotation Xrotation Yrotation 
		JOINT Spine
		{
			OFFSET 15.7357 0.0 0.0
			CHANNELS 6 Xposition Yposition Zposition Zrotation Xrotation Yrotation 
			JOINT Chest
			{
				OFFSET 8.98455 -0.406207 0.0
				CHANNELS 6 Xposition Yposition Zposition Zrotation Xrotation Yrotation 
				JOINT Neck
				{
					OFFSET 16.3773 0.0 0.0
					CHANNELS 6 Xposition Yposition Zposition Zrotation Xrotation Yrotation 
					JOINT Head
					{
						OFFSET 6.45672 0.0 0.0
						CHANNELS 6 Xposition Yposition Zposition Zrotation Xrotation Yrotation 
						End Site
						{
							OFFSET 0.0 0.0 0.0
						}
					}
				}
				JOINT Shoulder_L
				{
					OFFSET 12.9942 -0.242716 4.98039
					CHANNELS 6 Xposition Yposition Zposition Zrotation Xrotation Yrotation 
					JOINT UpperArm_L
					{
						OFFSET 5.34809 0.0 0.0
						CHANNELS 6 Xposition Yposition Zposition Zrotation Xrotation Yrotation 
						JOINT LowerArm_L
						{
							OFFSET 24.3286 1.87007e-05 0.0
							CHANNELS 6 Xposition Yposition Zposition Zrotation Xrotation Yrotation 
							JOINT Hand_L
							{
								OFFSET 22.2916 0.0 0.0
								CHANNELS 6 Xposition Yposition Zposition Zrotation Xrotation Yrotation 
								End Site
								{
									OFFSET 0.0 0.0 0.0
								}
							}
						}
					}
				}
				JOINT Shoulder_R
				{
					OFFSET 12.9945 -0.242716 -4.98039
					CHANNELS 6 Xposition Yposition Zposition Zrotation Xrotation Yrotation 
					JOINT UpperArm_R
					{
						OFFSET -5.34813 0.0 0.0
						CHANNELS 6 Xposition Yposition Zposition Zrotation Xrotation Yrotation 
						JOINT LowerArm_R
						{
							OFFSET -24.3289 0.000322201 0.0
							CHANNELS 6 Xposition Yposition Zposition Zrotation Xrotation Yrotation 
							JOINT Hand_R
							{
								OFFSET -22.2915 -0.000108084 0.0
								CHANNELS 6 Xposition Yposition Zposition Zrotation Xrotation Yrotation 
								End Site
								{
									OFFSET 0.0 0.0 0.0
								}
							}
						}
					}
				}
			}
		}
		JOINT UpperLeg_L
		{
			OFFSET -2.19248 -6.46944 0.0
			CHANNELS 6 Xposition Yposition Zposition Zrotation Xrotation Yrotation 
			JOINT LowerLeg_L
			{
				OFFSET 39.0811 0.0 -1.23785e-05
				CHANNELS 6 Xposition Yposition Zposition Zrotation Xrotation Yrotation 
				JOINT Foot_L
				{
					OFFSET 40.9854 0.0 -1.26872e-05
					CHANNELS 6 Xposition Yposition Zposition Zrotation Xrotation Yrotation 
					JOINT Toes_L
					{
						OFFSET 11.7543 0.0 0.0
						CHANNELS 6 Xposition Yposition Zposition Zrotation Xrotation Yrotation 
						End Site
						{
							OFFSET 0.0 0.0 0.0
						}
					}
				}
			}
		}
		JOINT UpperLeg_R
		{
			OFFSET -2.19251 6.46944 0.0
			CHANNELS 6 Xposition Yposition Zposition Zrotation Xrotation Yrotation 
			JOINT LowerLeg_R
			{
				OFFSET -39.0811 -0.00228153 -0.0401928
				CHANNELS 6 Xposition Yposition Zposition Zrotation Xrotation Yrotation 
				JOINT Foot_R
				{
					OFFSET -40.9854 0.0 0.0
					CHANNELS 6 Xposition Yposition Zposition Zrotation Xrotation Yrotation 
					JOINT Toes_R
					{
						OFFSET -11.7543 0.0 0.0
						CHANNELS 6 Xposition Yposition Zposition Zrotation Xrotation Yrotation 
						End Site
						{
							OFFSET 0.0 0.0 0.0
						}
					}
				}
			}
		}
	}
}
MOTION
Frames:	6
Frame Time:	0.0333333
0.000000 0.000000 0.000000 0.000000 0.000000 -0.000000 2.559670 90.697300 -0.199499 89.899400 -5.874960 14.663800 15.735700 0.000005 -0.000001 87.530100 84.542200 -88.174500 8.984550 -0.406207 -0.000000 3.137380 -0.443878 -1.275100 16.377300 -0.000001 -0.000001 30.745300 -4.632540 0.938660 6.456720 -0.000001 -0.000000 15.437800 -5.834760 -7.379510 12.994200 -0.242716 4.980390 -86.227900 -8.423580 -65.769000 5.348090 -0.000007 -0.000001 -24.485500 -40.996000 -78.265900 24.328600 0.000019 0.000005 19.258200 16.012800 -51.707100 22.291600 -0.000001 0.000005 17.353000 5.475400 -5.572230 12.994500 -0.242716 -4.980390 92.831500 -7.948380 -70.319500 -5.348130 -0.000001 -0.000004 -35.847000 -40.921500 -83.115100 -24.328900 0.000322 -0.000009 1.188480 1.218710 -44.314300 -22.291500 -0.000108 -0.000004 25.581600 5.582740 -10.358500 -2.192480 -6.469440 -0.000000 -176.241000 -13.475600 4.693700 39.081100 -0.000007 -0.000012 -0.069090 0.115339 30.922500 40.985400 -0.000006 -0.000013 1.996300 2.968580 -70.986000 11.754300 -0.000000 0.000003 -0.000073 -0.000785 -16.607900 -2.192510 6.469440 -0.000001 171.189000 15.030800 -175.217000 -39.081100 -0.002282 -0.040193 -0.165366 0.287663 30.384800 -40.985400 0.000008 0.000006 0.198630 11.630900 -69.603700 -11.754300 -0.000006 -0.000006 -0.005394 -0.065231 -19.227500
0.000000 0.000000 0.000000 0.000000 0.000000 -0.000000 2.512450 90.698600 -0.138215 89.862400 -5.888460 14.506900 15.735700 0.000005 -0.000001 88.005800 84.481600 -88.681700 8.984550 -0.406207 -0.000000 3.262310 -0.357078 -1.339990 16.377300 -0.000001 -0.000001 31.048800 -4.700340 1.247890 6.456720 -0.000001 -0.000000 15.443700 -6.134780 -6.793450 12.994200 -0.242716 4.980390 -86.289300 -8.195550 -65.536300 5.348090 -0.000007 -0.000001 -25.880300 -42.454800 -75.001600 24.328600 0.000019 0.000005 20.025900 17.584000 -50.346400 22.291600 -0.000001 0.000005 15.411900 5.458710 -4.951180 12.994500 -0.242716 -4.980390 92.712400 -7.657090 -70.426500 -5.348130 -0.000001 -0.000004 -37.731800 -42.214300 -80.648800 -24.328900 0.000322 -0.000009 0.878915 0.974338 -42.089400 -22.291500 -0.000108 -0.000004 25.005000 5.566410 -9.504710 -2.192480 -6.469440 -0.000000 -176.216000 -13.400900 4.574420 39.081100 -0.000007 -0.000012 -0.070681 0.117995 30.922700 40.985400 -0.000006 -0.000013 1.944680 2.948540 -71.017900 11.754300 -0.000000 0.000003 -0.000072 -0.000779 -16.607600 -2.192510 6.469440 -0.000001 171.268000 15.104200 -175.301000 -39.081100 -0.002282 -0.040193 -0.165741 0.288742 30.346700 -40.985400 0.000008 0.000006 0.236802 11.674900 -69.639600 -11.754300 -0.000006 -0.000006 -0.005293 -0.064274 -19.188500
0.000000 0.000000 0.000000 0.000000 0.000000 -0.000000 2.469740 90.702000 -0.062571 89.858000 -5.852120 14.362400 15.735700 0.000005 -0.000001 88.442100 84.409100 -89.159500 8.984550 -0.406207 -0.000000 3.410310 -0.276384 -1.424960 16.377300 -0.000001 -0.000001 31.244900 -4.779890 1.509820 6.456720 -0.000001 -0.000000 15.587400 -6.476450 -6.209120 12.994200 -0.242716 4.980390 -86.394200 -7.937800 -65.472100 5.348090 -0.000007 -0.000001 -28.294700 -44.264300 -72.278900 24.328600 0.000019 0.000005 20.582700 19.206500 -48.781100 22.291600 -0.000001 0.000005 13.061100 5.428220 -3.871470 12.994500 -0.242716 -4.980390 92.581800 -7.331510 -70.538900 -5.348130 -0.000001 -0.000004 -39.094000 -43.776000 -77.719600 -24.328900 0.000322 -0.000009 0.384703 0.461230 -39.905100 -22.291500 -0.000108 -0.000004 24.389800 5.543610 -8.406940 -2.192480 -6.469440 -0.000000 -176.234000 -13.357500 4.494660 39.081100 -0.000007 -0.000012 -0.069689 0.116520 30.883100 40.985400 -0.000006 -0.000013 1.902800 2.904410 -71.042400 11.754300 -0.000000 0.000003 -0.000076 -0.000815 -16.609000 -2.192510 6.469440 -0.000001 171.290000 15.206800 -175.356000 -39.081100 -0.002282 -0.040193 -0.169131 0.295023 30.305200 -40.985400 0.000008 0.000006 0.261073 11.702900 -69.683100 -11.754300 -0.000006 -0.000006 -0.005555 -0.066743 -19.289100
0.000000 0.000000 0.000000 0.000000 0.000000 -0.000000 2.420360 90.702100 0.035907 89.851900 -5.789430 14.208300 15.735700 0.000005 -0.000001 88.601300 84.338600 -89.350500 8.984550 -0.406207 -0.000000 3.552280 -0.248512 -1.489080 16.377300 -0.000001 -0.000001 31.582400 -4.838990 1.654250 6.456720 -0.000001 -0.000000 15.676200 -6.693180 -5.691490 12.994200 -0.242716 4.980390 -86.451800 -7.750190 -65.306500 5.348090 -0.000007 -0.000001 -32.084600 -46.336200 -70.448300 24.328600 0.000019 0.000005 19.906200 20.122700 -46.466500 22.291600 -0.000001 0.000005 11.504000 5.384250 -2.431160 12.994500 -0.242716 -4.980390 92.473000 -7.007800 -70.506600 -5.348130 -0.000001 -0.000004 -39.982500 -45.313000 -74.653300 -24.328900 0.000322 -0.000009 -0.335454 -0.436394 -37.479300 -22.291500 -0.000108 -0.000004 23.934400 5.529760 -7.784170 -2.192480 -6.469440 -0.000000 -176.228000 -13.296600 4.420980 39.081100 -0.000007 -0.000012 -0.073994 0.123874 30.851500 40.985400 -0.000006 -0.000013 1.864870 2.933600 -71.087800 11.754300 -0.000000 0.000003 -0.000069 -0.000752 -16.606600 -2.192510 6.469440 -0.000001 171.354000 15.217800 -175.411000 -39.081100 -0.002282 -0.040193 -0.167891 0.293315 30.270000 -40.985400 0.000008 0.000006 0.263590 11.634600 -69.751400 -11.754300 -0.000006 -0.000006 -0.005497 -0.066200 -19.267000
0.000000 0.000000 0.000000 0.000000 0.000000 -0.000000 2.377890 90.696400 0.161710 89.866900 -5.689230 14.074800 15.735700 0.000005 -0.000001 88.583400 84.270800 -89.368400 8.984550 -0.406207 -0.000000 3.687690 -0.254981 -1.560180 16.377300 -0.000001 -0.000001 31.890000 -4.868990 1.928370 6.456720 -0.000001 -0.000000 15.759300 -6.913430 -5.519710 12.994200 -0.242716 4.980390 -86.545200 -7.504970 -65.193000 5.348090 -0.000007 -0.000001 -35.998400 -48.669100 -69.121300 24.328600 0.000019 0.000005 17.481400 20.028900 -42.599100 22.291600 -0.000001 0.000005 11.361600 5.348890 -1.344350 12.994500 -0.242716 -4.980390 92.383200 -6.737090 -70.466700 -5.348130 -0.000001 -0.000004 -40.294100 -46.878800 -71.161800 -24.328900 0.000322 -0.000009 -0.817615 -1.164280 -35.048400 -22.291500 -0.000108 -0.000004 23.003100 5.508870 -6.892880 -2.192480 -6.469440 -0.000000 -176.240000 -13.270300 4.386030 39.081100 -0.000007 -0.000012 -0.074093 0.124187 30.821700 40.985400 -0.000006 -0.000013 1.851200 3.005710 -71.156300 11.754300 -0.000000 0.000003 -0.000066 -0.000723 -16.605500 -2.192510 6.469440 -0.000001 171.345000 15.290100 -175.425000 -39.081100 -0.002282 -0.040193 -0.173235 0.302650 30.255200 -40.985400 0.000008 0.000006 0.261213 11.597300 -69.848400 -11.754300 -0.000006 -0.000006 -0.005738 -0.068440 -19.358300
0.000000 0.000000 0.000000 0.000000 0.000000 -0.000000 2.329640 90.694500 0.306229 89.878900 -5.565900 13.910000 15.735700 0.000005 -0.000001 88.540900 84.208300 -89.370000 8.984550 -0.406207 -0.000000 3.812280 -0.265950 -1.647370 16.377300 -0.000001 -0.000001 32.128600 -4.968310 1.978320 6.456720 -0.000001 -0.000000 16.009400 -7.134420 -5.090680 12.994200 -0.242716 4.980390 -86.597300 -7.377470 -65.153700 5.348090 -0.000007 -0.000001 -39.895200 -51.246200 -68.090000 24.328600 0.000019 0.000005 14.826700 19.788700 -38.020700 22.291600 -0.000001 0.000005 11.857600 5.315010 -0.352802 12.994500 -0.242716 -4.980390 92.304900 -6.479460 -70.369700 -5.348130 -0.000001 -0.000004 -40.786700 -48.516600 -67.833400 -24.328900 0.000322 -0.000009 -0.939496 -1.466470 -32.619300 -22.291500 -0.000108 -0.000004 21.390200 5.476960 -5.627110 -2.192480 -6.469440 -0.000000 -176.252000 -13.195900 4.332310 39.081100 -0.000007 -0.000012 -0.077336 0.129880 30.771700 40.985400 -0.000006 -0.000013 1.817130 3.062240 -71.216600 11.754300 -0.000000 0.000003 -0.000078 -0.000829 -16.609500 -2.192510 6.469440 -0.000001 171.361000 15.371400 -175.443000 -39.081100 -0.002282 -0.040193 -0.173176 0.303033 30.215400 -40.985400 0.000008 0.000006 0.261454 11.538700 -69.948500 -11.754300 -0.000006 -0.000006 -0.005291 -0.064250 -19.187500
